<svg xmlns="http://www.w3.org/2000/svg" xmlns:xlink="http://www.w3.org/1999/xlink" width="1200" zoomAndPan="magnify" viewBox="0 0 900 187.499995" height="250" preserveAspectRatio="xMidYMid meet" version="1.0"><defs><g/><clipPath id="eae6f31c47"><path d="M 63.945312 51.875 L 114.75 51.875 L 114.75 143.359375 L 63.945312 143.359375 Z M 63.945312 51.875 " clip-rule="nonzero"/></clipPath><clipPath id="831adeb443"><path d="M 71.425781 51.875 L 107.269531 51.875 C 111.398438 51.875 114.75 55.222656 114.75 59.355469 L 114.75 135.722656 C 114.75 139.851562 111.398438 143.203125 107.269531 143.203125 L 71.425781 143.203125 C 67.292969 143.203125 63.945312 139.851562 63.945312 135.722656 L 63.945312 59.355469 C 63.945312 55.222656 67.292969 51.875 71.425781 51.875 Z M 71.425781 51.875 " clip-rule="nonzero"/></clipPath><clipPath id="08d83c625a"><path d="M 19.898438 92.792969 L 114.8125 92.792969 L 114.8125 143.203125 L 19.898438 143.203125 Z M 19.898438 92.792969 " clip-rule="nonzero"/></clipPath><clipPath id="4f8003bb8b"><path d="M 27.378906 92.792969 L 107.269531 92.792969 C 111.398438 92.792969 114.75 96.140625 114.75 100.269531 L 114.75 135.722656 C 114.75 139.851562 111.398438 143.203125 107.269531 143.203125 L 27.378906 143.203125 C 23.246094 143.203125 19.898438 139.851562 19.898438 135.722656 L 19.898438 100.269531 C 19.898438 96.140625 23.246094 92.792969 27.378906 92.792969 Z M 27.378906 92.792969 " clip-rule="nonzero"/></clipPath><clipPath id="b67987384c"><path d="M 42.117188 72.332031 L 92.527344 72.332031 L 92.527344 122.742188 L 42.117188 122.742188 Z M 42.117188 72.332031 " clip-rule="nonzero"/></clipPath><clipPath id="b8c4e560c9"><path d="M 49.597656 72.332031 L 85.046875 72.332031 C 89.179688 72.332031 92.527344 75.679688 92.527344 79.8125 L 92.527344 115.261719 C 92.527344 119.394531 89.179688 122.742188 85.046875 122.742188 L 49.597656 122.742188 C 45.464844 122.742188 42.117188 119.394531 42.117188 115.261719 L 42.117188 79.8125 C 42.117188 75.679688 45.464844 72.332031 49.597656 72.332031 Z M 49.597656 72.332031 " clip-rule="nonzero"/></clipPath></defs><g clip-path="url(#eae6f31c47)"><g clip-path="url(#831adeb443)"><path fill="#000000" d="M 63.945312 51.875 L 114.75 51.875 L 114.75 143.160156 L 63.945312 143.160156 Z M 63.945312 51.875 " fill-opacity="1" fill-rule="nonzero"/></g></g><g clip-path="url(#08d83c625a)"><g clip-path="url(#4f8003bb8b)"><path fill="#000000" d="M 19.898438 92.792969 L 114.8125 92.792969 L 114.8125 143.203125 L 19.898438 143.203125 Z M 19.898438 92.792969 " fill-opacity="1" fill-rule="nonzero"/></g></g><g clip-path="url(#b67987384c)"><g clip-path="url(#b8c4e560c9)"><path fill="#000000" d="M 42.117188 72.332031 L 92.527344 72.332031 L 92.527344 122.742188 L 42.117188 122.742188 Z M 42.117188 72.332031 " fill-opacity="1" fill-rule="nonzero"/></g></g><g fill="#000000" fill-opacity="1"><g transform="translate(127.88925, 143.076287)"><g><path d="M 41.15625 -69.4375 C 48.5625 -69.4375 54.703125 -67.878906 59.578125 -64.765625 C 64.460938 -61.648438 68.125 -57.484375 70.5625 -52.265625 C 73.007812 -47.046875 74.234375 -41.320312 74.234375 -35.09375 C 74.234375 -28.863281 72.988281 -22.992188 70.5 -17.484375 C 68.019531 -11.972656 64.359375 -7.53125 59.515625 -4.15625 C 54.679688 -0.789062 48.644531 0.890625 41.40625 0.890625 C 38.125 0.890625 34.882812 0.320312 31.6875 -0.8125 C 28.488281 -1.957031 25.710938 -3.957031 23.359375 -6.8125 L 23.359375 0 L 3.65625 0 L 3.65625 -89.890625 L 23.359375 -89.890625 L 23.359375 -62.109375 C 25.628906 -64.722656 28.320312 -66.597656 31.4375 -67.734375 C 34.550781 -68.867188 37.789062 -69.4375 41.15625 -69.4375 Z M 39.015625 -18.1875 C 42.378906 -18.1875 45.195312 -18.984375 47.46875 -20.578125 C 49.738281 -22.179688 51.441406 -24.242188 52.578125 -26.765625 C 53.710938 -29.285156 54.28125 -31.894531 54.28125 -34.59375 C 54.28125 -37.375 53.710938 -40.023438 52.578125 -42.546875 C 51.441406 -45.066406 49.757812 -47.125 47.53125 -48.71875 C 45.300781 -50.320312 42.460938 -51.125 39.015625 -51.125 C 36.148438 -51.125 33.539062 -50.390625 31.1875 -48.921875 C 28.832031 -47.453125 26.9375 -45.453125 25.5 -42.921875 C 24.070312 -40.398438 23.359375 -37.625 23.359375 -34.59375 C 23.359375 -31.5625 24.070312 -28.800781 25.5 -26.3125 C 26.9375 -23.832031 28.832031 -21.859375 31.1875 -20.390625 C 33.539062 -18.921875 36.148438 -18.1875 39.015625 -18.1875 Z M 39.015625 -18.1875 "/></g></g></g><g fill="#000000" fill-opacity="1"><g transform="translate(208.814294, 143.076287)"><g><path d="M 47.34375 -6.9375 C 44.988281 -4 42.191406 -1.957031 38.953125 -0.8125 C 35.710938 0.320312 32.320312 0.890625 28.78125 0.890625 C 22.132812 0.890625 16.957031 -0.539062 13.25 -3.40625 C 9.550781 -6.269531 6.984375 -10.097656 5.546875 -14.890625 C 4.117188 -19.691406 3.40625 -24.953125 3.40625 -30.671875 L 3.40625 -68.296875 L 23.484375 -68.296875 L 23.484375 -30.8125 C 23.484375 -26.09375 24.597656 -22.617188 26.828125 -20.390625 C 29.054688 -18.160156 31.519531 -17.046875 34.21875 -17.046875 C 37.15625 -17.046875 39.90625 -18.265625 42.46875 -20.703125 C 45.039062 -23.140625 46.328125 -26.632812 46.328125 -31.1875 L 46.328125 -68.296875 L 67.421875 -68.296875 L 67.421875 0 L 47.34375 0 Z M 47.34375 -6.9375 "/></g></g></g><g fill="#000000" fill-opacity="1"><g transform="translate(285.068118, 143.076287)"><g><path d="M 2.78125 -83.328125 C 2.78125 -87.191406 4.019531 -90.09375 6.5 -92.03125 C 8.976562 -93.96875 11.648438 -94.9375 14.515625 -94.9375 C 17.546875 -94.9375 20.320312 -93.988281 22.84375 -92.09375 C 25.375 -90.207031 26.640625 -87.285156 26.640625 -83.328125 C 26.640625 -79.617188 25.414062 -76.835938 22.96875 -74.984375 C 20.53125 -73.140625 17.835938 -72.21875 14.890625 -72.21875 C 11.867188 -72.21875 9.09375 -73.140625 6.5625 -74.984375 C 4.039062 -76.835938 2.78125 -79.617188 2.78125 -83.328125 Z M 4.671875 -68.296875 L 4.671875 0 L 24.875 0 L 24.875 -68.296875 Z M 4.671875 -68.296875 "/></g></g></g><g fill="#000000" fill-opacity="1"><g transform="translate(318.902596, 143.076287)"><g><path d="M 23.234375 -88.375 L 23.234375 0 L 3.03125 0 L 3.03125 -88.375 Z M 23.234375 -88.375 "/></g></g></g><g fill="#000000" fill-opacity="1"><g transform="translate(350.338351, 143.076287)"><g><path d="M 34.84375 -69.4375 C 38.207031 -69.4375 41.425781 -68.867188 44.5 -67.734375 C 47.570312 -66.597656 50.242188 -64.722656 52.515625 -62.109375 L 52.515625 -89 L 72.34375 -89 L 72.34375 0 L 52.515625 0 L 52.515625 -6.8125 C 50.160156 -3.957031 47.40625 -1.957031 44.25 -0.8125 C 41.09375 0.320312 37.875 0.890625 34.59375 0.890625 C 27.4375 0.890625 21.414062 -0.789062 16.53125 -4.15625 C 11.65625 -7.53125 7.972656 -11.972656 5.484375 -17.484375 C 3.003906 -22.992188 1.765625 -28.863281 1.765625 -35.09375 C 1.765625 -41.320312 2.984375 -47.046875 5.421875 -52.265625 C 7.867188 -57.484375 11.53125 -61.648438 16.40625 -64.765625 C 21.289062 -67.878906 27.4375 -69.4375 34.84375 -69.4375 Z M 36.984375 -18.1875 C 39.847656 -18.1875 42.457031 -18.921875 44.8125 -20.390625 C 47.175781 -21.859375 49.050781 -23.832031 50.4375 -26.3125 C 51.820312 -28.800781 52.515625 -31.5625 52.515625 -34.59375 C 52.515625 -37.625 51.820312 -40.398438 50.4375 -42.921875 C 49.050781 -45.453125 47.175781 -47.453125 44.8125 -48.921875 C 42.457031 -50.390625 39.847656 -51.125 36.984375 -51.125 C 33.617188 -51.125 30.800781 -50.320312 28.53125 -48.71875 C 26.257812 -47.125 24.554688 -45.066406 23.421875 -42.546875 C 22.285156 -40.023438 21.71875 -37.375 21.71875 -34.59375 C 21.71875 -31.894531 22.285156 -29.285156 23.421875 -26.765625 C 24.554688 -24.242188 26.257812 -22.179688 28.53125 -20.578125 C 30.800781 -18.984375 33.617188 -18.1875 36.984375 -18.1875 Z M 36.984375 -18.1875 "/></g></g></g><g fill="#000000" fill-opacity="1"><g transform="translate(431.515888, 143.076287)"><g><path d="M 2.53125 -46.328125 C 2.53125 -51.890625 3.8125 -56.394531 6.375 -59.84375 C 8.9375 -63.289062 12.363281 -65.832031 16.65625 -67.46875 C 20.957031 -69.113281 25.628906 -69.9375 30.671875 -69.9375 C 35.554688 -69.9375 40.082031 -69.09375 44.25 -67.40625 C 48.414062 -65.726562 51.78125 -63.164062 54.34375 -59.71875 C 56.914062 -56.269531 58.203125 -51.894531 58.203125 -46.59375 L 39.140625 -46.59375 C 39.140625 -48.351562 38.613281 -49.632812 37.5625 -50.4375 C 36.507812 -51.238281 35.265625 -51.742188 33.828125 -51.953125 C 32.398438 -52.160156 30.972656 -52.265625 29.546875 -52.265625 C 28.109375 -52.265625 26.585938 -51.945312 24.984375 -51.3125 C 23.390625 -50.6875 22.59375 -49.445312 22.59375 -47.59375 C 22.59375 -46.414062 23.078125 -45.570312 24.046875 -45.0625 C 25.015625 -44.5625 26.148438 -44.25 27.453125 -44.125 C 28.765625 -44 29.882812 -43.894531 30.8125 -43.8125 C 35.601562 -43.726562 40.1875 -42.925781 44.5625 -41.40625 C 48.9375 -39.894531 52.535156 -37.5 55.359375 -34.21875 C 58.179688 -30.9375 59.59375 -26.597656 59.59375 -21.203125 C 59.59375 -15.484375 58.222656 -10.941406 55.484375 -7.578125 C 52.753906 -4.210938 49.15625 -1.8125 44.6875 -0.375 C 40.226562 1.050781 35.472656 1.765625 30.421875 1.765625 C 25.035156 1.765625 20.175781 0.925781 15.84375 -0.75 C 11.507812 -2.4375 8.054688 -5.109375 5.484375 -8.765625 C 2.921875 -12.429688 1.597656 -17.171875 1.515625 -22.984375 L 21.46875 -22.984375 C 21.550781 -20.617188 22.644531 -18.953125 24.75 -17.984375 C 26.851562 -17.015625 29.082031 -16.53125 31.4375 -16.53125 C 33.875 -16.53125 35.847656 -16.953125 37.359375 -17.796875 C 38.878906 -18.640625 39.640625 -19.609375 39.640625 -20.703125 C 39.640625 -22.390625 38.96875 -23.503906 37.625 -24.046875 C 36.28125 -24.597656 34.742188 -24.914062 33.015625 -25 C 31.285156 -25.082031 29.875 -25.164062 28.78125 -25.25 C 24.488281 -25.664062 20.34375 -26.566406 16.34375 -27.953125 C 12.351562 -29.347656 9.050781 -31.519531 6.4375 -34.46875 C 3.832031 -37.414062 2.53125 -41.367188 2.53125 -46.328125 Z M 2.53125 -46.328125 "/></g></g></g><g fill="#000000" fill-opacity="1"><g transform="translate(496.533671, 143.076287)"><g><path d="M 45.453125 0.125 C 43.429688 0.457031 41.472656 0.707031 39.578125 0.875 C 37.679688 1.050781 35.894531 1.140625 34.21875 1.140625 C 26.726562 1.140625 20.832031 -0.773438 16.53125 -4.609375 C 12.238281 -8.441406 10.09375 -14.773438 10.09375 -23.609375 L 10.09375 -50.5 L 1.140625 -50.5 L 1.140625 -67.546875 L 10.09375 -67.546875 L 10.09375 -80.546875 L 29.921875 -82.3125 L 29.921875 -67.546875 L 44.1875 -67.546875 L 44.1875 -50.5 L 29.921875 -50.5 L 29.921875 -23.609375 C 29.921875 -20.578125 30.867188 -18.492188 32.765625 -17.359375 C 34.660156 -16.222656 36.785156 -15.65625 39.140625 -15.65625 C 40.992188 -15.65625 42.882812 -15.863281 44.8125 -16.28125 Z M 45.453125 0.125 "/></g></g></g><g fill="#000000" fill-opacity="1"><g transform="translate(548.926626, 143.076287)"><g><path d="M 34.84375 -69.4375 C 38.207031 -69.4375 41.445312 -68.785156 44.5625 -67.484375 C 47.675781 -66.179688 50.328125 -64.097656 52.515625 -61.234375 L 52.515625 -68.296875 L 72.34375 -68.296875 L 72.34375 0 L 52.515625 0 L 52.515625 -6.8125 C 50.160156 -3.957031 47.40625 -1.957031 44.25 -0.8125 C 41.09375 0.320312 37.875 0.890625 34.59375 0.890625 C 27.4375 0.890625 21.414062 -0.789062 16.53125 -4.15625 C 11.65625 -7.53125 7.972656 -11.972656 5.484375 -17.484375 C 3.003906 -22.992188 1.765625 -28.863281 1.765625 -35.09375 C 1.765625 -41.320312 2.984375 -47.046875 5.421875 -52.265625 C 7.867188 -57.484375 11.53125 -61.648438 16.40625 -64.765625 C 21.289062 -67.878906 27.4375 -69.4375 34.84375 -69.4375 Z M 36.984375 -18.1875 C 39.847656 -18.1875 42.457031 -18.921875 44.8125 -20.390625 C 47.175781 -21.859375 49.050781 -23.832031 50.4375 -26.3125 C 51.820312 -28.800781 52.515625 -31.5625 52.515625 -34.59375 C 52.515625 -37.625 51.820312 -40.398438 50.4375 -42.921875 C 49.050781 -45.453125 47.175781 -47.453125 44.8125 -48.921875 C 42.457031 -50.390625 39.847656 -51.125 36.984375 -51.125 C 33.617188 -51.125 30.800781 -50.320312 28.53125 -48.71875 C 26.257812 -47.125 24.554688 -45.066406 23.421875 -42.546875 C 22.285156 -40.023438 21.71875 -37.375 21.71875 -34.59375 C 21.71875 -31.894531 22.285156 -29.285156 23.421875 -26.765625 C 24.554688 -24.242188 26.257812 -22.179688 28.53125 -20.578125 C 30.800781 -18.984375 33.617188 -18.1875 36.984375 -18.1875 Z M 36.984375 -18.1875 "/></g></g></g><g fill="#000000" fill-opacity="1"><g transform="translate(630.104163, 143.076287)"><g><path d="M 45.453125 0.125 C 43.429688 0.457031 41.472656 0.707031 39.578125 0.875 C 37.679688 1.050781 35.894531 1.140625 34.21875 1.140625 C 26.726562 1.140625 20.832031 -0.773438 16.53125 -4.609375 C 12.238281 -8.441406 10.09375 -14.773438 10.09375 -23.609375 L 10.09375 -50.5 L 1.140625 -50.5 L 1.140625 -67.546875 L 10.09375 -67.546875 L 10.09375 -80.546875 L 29.921875 -82.3125 L 29.921875 -67.546875 L 44.1875 -67.546875 L 44.1875 -50.5 L 29.921875 -50.5 L 29.921875 -23.609375 C 29.921875 -20.578125 30.867188 -18.492188 32.765625 -17.359375 C 34.660156 -16.222656 36.785156 -15.65625 39.140625 -15.65625 C 40.992188 -15.65625 42.882812 -15.863281 44.8125 -16.28125 Z M 45.453125 0.125 "/></g></g></g><g fill="#000000" fill-opacity="1"><g transform="translate(682.497118, 143.076287)"><g><path d="M 2.78125 -83.328125 C 2.78125 -87.191406 4.019531 -90.09375 6.5 -92.03125 C 8.976562 -93.96875 11.648438 -94.9375 14.515625 -94.9375 C 17.546875 -94.9375 20.320312 -93.988281 22.84375 -92.09375 C 25.375 -90.207031 26.640625 -87.285156 26.640625 -83.328125 C 26.640625 -79.617188 25.414062 -76.835938 22.96875 -74.984375 C 20.53125 -73.140625 17.835938 -72.21875 14.890625 -72.21875 C 11.867188 -72.21875 9.09375 -73.140625 6.5625 -74.984375 C 4.039062 -76.835938 2.78125 -79.617188 2.78125 -83.328125 Z M 4.671875 -68.296875 L 4.671875 0 L 24.875 0 L 24.875 -68.296875 Z M 4.671875 -68.296875 "/></g></g></g><g fill="#000000" fill-opacity="1"><g transform="translate(716.331596, 143.076287)"><g><path d="M 73.34375 -34.09375 C 73.34375 -28.03125 72.3125 -22.722656 70.25 -18.171875 C 68.195312 -13.628906 65.441406 -9.84375 61.984375 -6.8125 C 58.535156 -3.78125 54.644531 -1.507812 50.3125 0 C 45.976562 1.507812 41.535156 2.265625 36.984375 2.265625 C 32.441406 2.265625 28.003906 1.507812 23.671875 0 C 19.335938 -1.507812 15.421875 -3.78125 11.921875 -6.8125 C 8.429688 -9.84375 5.65625 -13.628906 3.59375 -18.171875 C 1.53125 -22.722656 0.5 -28.03125 0.5 -34.09375 C 0.5 -40.144531 1.53125 -45.460938 3.59375 -50.046875 C 5.65625 -54.640625 8.410156 -58.453125 11.859375 -61.484375 C 15.316406 -64.515625 19.234375 -66.785156 23.609375 -68.296875 C 27.984375 -69.816406 32.441406 -70.578125 36.984375 -70.578125 C 41.535156 -70.578125 45.976562 -69.816406 50.3125 -68.296875 C 54.644531 -66.785156 58.535156 -64.515625 61.984375 -61.484375 C 65.441406 -58.453125 68.195312 -54.640625 70.25 -50.046875 C 72.3125 -45.460938 73.34375 -40.144531 73.34375 -34.09375 Z M 20.453125 -34.09375 C 20.453125 -30.300781 21.25 -27.117188 22.84375 -24.546875 C 24.445312 -21.984375 26.507812 -20.070312 29.03125 -18.8125 C 31.5625 -17.550781 34.210938 -16.921875 36.984375 -16.921875 C 39.765625 -16.921875 42.394531 -17.550781 44.875 -18.8125 C 47.363281 -20.070312 49.40625 -21.984375 51 -24.546875 C 52.601562 -27.117188 53.40625 -30.300781 53.40625 -34.09375 C 53.40625 -39.894531 51.804688 -44.25 48.609375 -47.15625 C 45.410156 -50.0625 41.535156 -51.515625 36.984375 -51.515625 C 34.210938 -51.515625 31.5625 -50.859375 29.03125 -49.546875 C 26.507812 -48.242188 24.445312 -46.304688 22.84375 -43.734375 C 21.25 -41.171875 20.453125 -37.957031 20.453125 -34.09375 Z M 20.453125 -34.09375 "/></g></g></g><g fill="#000000" fill-opacity="1"><g transform="translate(796.246615, 143.076287)"><g><path d="M 22.984375 -61.484375 C 25.421875 -64.515625 28.488281 -66.578125 32.1875 -67.671875 C 35.894531 -68.765625 39.554688 -69.3125 43.171875 -69.3125 C 49.660156 -69.226562 54.691406 -67.734375 58.265625 -64.828125 C 61.835938 -61.921875 64.335938 -58.085938 65.765625 -53.328125 C 67.203125 -48.578125 67.878906 -43.34375 67.796875 -37.625 L 67.796875 0 L 47.59375 0 L 47.59375 -37.5 C 47.59375 -42.125 46.5 -45.507812 44.3125 -47.65625 C 42.125 -49.800781 39.679688 -50.875 36.984375 -50.875 C 35.054688 -50.875 33.082031 -50.328125 31.0625 -49.234375 C 29.039062 -48.140625 27.351562 -46.582031 26 -44.5625 C 24.65625 -42.539062 23.984375 -40.0625 23.984375 -37.125 L 23.984375 0 L 2.90625 0 L 2.90625 -68.296875 L 22.984375 -68.296875 Z M 22.984375 -61.484375 "/></g></g></g></svg>