<svg xmlns="http://www.w3.org/2000/svg" xmlns:xlink="http://www.w3.org/1999/xlink" width="500" zoomAndPan="magnify" viewBox="0 0 375 374.999991" height="500" preserveAspectRatio="xMidYMid meet" version="1.0"><defs><clipPath id="ef2aa62ad0"><path d="M 99.683594 62.5 L 275 62.5 L 275 179 L 99.683594 179 Z M 99.683594 62.5 " clip-rule="nonzero"/></clipPath><clipPath id="82a2616533"><path d="M 99.683594 161 L 275.183594 161 L 275.183594 301 L 99.683594 301 Z M 99.683594 161 " clip-rule="nonzero"/></clipPath></defs><rect x="-37.5" width="450" fill="#ffffff" y="-37.499999" height="449.999989" fill-opacity="1"/><rect x="-37.5" width="450" fill="#000000" y="-37.499999" height="449.999989" fill-opacity="1"/><g clip-path="url(#ef2aa62ad0)"><path fill="#fa8c16" d="M 105.035156 118.601562 L 199.554688 63.910156 C 200.355469 63.449219 201.199219 63.097656 202.089844 62.859375 C 202.984375 62.621094 203.890625 62.5 204.8125 62.5 C 205.738281 62.5 206.644531 62.621094 207.535156 62.859375 C 208.425781 63.097656 209.273438 63.449219 210.074219 63.910156 L 269.585938 98.359375 C 269.933594 98.5625 270.269531 98.78125 270.59375 99.019531 C 270.917969 99.257812 271.226562 99.515625 271.519531 99.789062 C 271.8125 100.0625 272.09375 100.355469 272.351562 100.660156 C 272.613281 100.96875 272.855469 101.289062 273.082031 101.621094 C 273.304688 101.957031 273.507812 102.300781 273.695312 102.660156 C 273.878906 103.019531 274.042969 103.382812 274.1875 103.761719 C 274.328125 104.136719 274.449219 104.519531 274.546875 104.910156 C 274.648438 105.300781 274.722656 105.695312 274.777344 106.097656 C 274.832031 106.496094 274.863281 106.894531 274.871094 107.300781 C 274.878906 107.703125 274.863281 108.105469 274.824219 108.503906 C 274.785156 108.90625 274.726562 109.304688 274.640625 109.695312 C 274.558594 110.089844 274.453125 110.480469 274.324219 110.859375 C 274.195312 111.242188 274.046875 111.617188 273.878906 111.980469 C 273.707031 112.34375 273.515625 112.699219 273.304688 113.042969 C 273.09375 113.386719 272.863281 113.714844 272.613281 114.03125 C 272.367188 114.347656 272.101562 114.648438 271.816406 114.933594 L 251.628906 135.265625 C 251.21875 135.675781 250.78125 136.050781 250.316406 136.390625 C 249.847656 136.726562 249.351562 137.027344 248.835938 137.28125 C 248.320312 137.539062 247.785156 137.753906 247.230469 137.921875 C 246.679688 138.089844 246.117188 138.214844 245.542969 138.289062 C 244.972656 138.363281 244.398438 138.394531 243.820312 138.375 C 243.242188 138.355469 242.671875 138.289062 242.105469 138.175781 C 241.539062 138.0625 240.984375 137.90625 240.445312 137.699219 C 239.902344 137.496094 239.382812 137.246094 238.882812 136.957031 L 210.183594 120.339844 C 209.367188 119.867188 208.503906 119.507812 207.59375 119.265625 C 206.683594 119.019531 205.757812 118.898438 204.8125 118.898438 C 203.871094 118.898438 202.945312 119.019531 202.035156 119.265625 C 201.121094 119.507812 200.257812 119.867188 199.441406 120.339844 L 99.773438 178.582031 L 99.773438 127.734375 C 99.777344 126.808594 99.894531 125.898438 100.132812 125.007812 C 100.375 124.113281 100.722656 123.265625 101.183594 122.464844 C 101.648438 121.660156 102.203125 120.933594 102.855469 120.277344 C 103.507812 119.625 104.234375 119.066406 105.035156 118.601562 Z M 105.035156 118.601562 " fill-opacity="1" fill-rule="nonzero"/></g><g clip-path="url(#82a2616533)"><path fill="#ffffff" d="M 269.824219 265.011719 L 210.074219 299.582031 C 209.273438 300.046875 208.425781 300.394531 207.535156 300.632812 C 206.644531 300.871094 205.738281 300.992188 204.8125 300.992188 C 203.890625 300.992188 202.984375 300.871094 202.089844 300.632812 C 201.199219 300.394531 200.355469 300.046875 199.554688 299.582031 L 105.035156 244.898438 C 104.234375 244.433594 103.507812 243.875 102.855469 243.21875 C 102.203125 242.566406 101.648438 241.839844 101.183594 241.035156 C 100.722656 240.234375 100.375 239.386719 100.132812 238.492188 C 99.894531 237.601562 99.777344 236.691406 99.773438 235.765625 L 99.773438 189.644531 L 148.476562 161.351562 L 148.476562 207.574219 C 148.480469 208.5 148.597656 209.410156 148.835938 210.304688 C 149.078125 211.199219 149.425781 212.046875 149.886719 212.847656 C 150.351562 213.648438 150.90625 214.375 151.558594 215.03125 C 152.210938 215.6875 152.9375 216.246094 153.738281 216.707031 L 199.554688 243.21875 C 200.355469 243.683594 201.199219 244.03125 202.089844 244.269531 C 202.984375 244.507812 203.890625 244.628906 204.8125 244.628906 C 205.738281 244.628906 206.644531 244.507812 207.535156 244.269531 C 208.425781 244.03125 209.273438 243.683594 210.074219 243.21875 L 239.085938 226.445312 C 239.582031 226.15625 240.101562 225.910156 240.640625 225.707031 C 241.179688 225.503906 241.730469 225.347656 242.292969 225.234375 C 242.855469 225.125 243.425781 225.058594 244 225.039062 C 244.574219 225.019531 245.148438 225.046875 245.71875 225.125 C 246.289062 225.199219 246.847656 225.320312 247.398438 225.488281 C 247.949219 225.65625 248.484375 225.867188 249 226.121094 C 249.515625 226.375 250.003906 226.671875 250.472656 227.007812 C 250.941406 227.34375 251.378906 227.714844 251.785156 228.121094 L 272.023438 248.410156 C 272.308594 248.695312 272.578125 248.996094 272.828125 249.3125 C 273.078125 249.628906 273.308594 249.957031 273.519531 250.300781 C 273.734375 250.644531 273.925781 250.996094 274.097656 251.363281 C 274.269531 251.726562 274.421875 252.101562 274.550781 252.484375 C 274.679688 252.863281 274.785156 253.253906 274.871094 253.648438 C 274.953125 254.042969 275.015625 254.441406 275.054688 254.84375 C 275.09375 255.242188 275.109375 255.648438 275.101562 256.050781 C 275.097656 256.453125 275.066406 256.855469 275.011719 257.253906 C 274.960938 257.65625 274.882812 258.050781 274.785156 258.441406 C 274.6875 258.832031 274.566406 259.21875 274.425781 259.597656 C 274.28125 259.972656 274.121094 260.339844 273.933594 260.699219 C 273.75 261.058594 273.546875 261.40625 273.320312 261.742188 C 273.097656 262.078125 272.855469 262.398438 272.59375 262.703125 C 272.332031 263.011719 272.054688 263.304688 271.761719 263.578125 C 271.464844 263.855469 271.15625 264.113281 270.832031 264.351562 C 270.507812 264.589844 270.171875 264.8125 269.824219 265.011719 Z M 269.824219 265.011719 " fill-opacity="1" fill-rule="nonzero"/></g></svg>