<svg xmlns="http://www.w3.org/2000/svg" xmlns:xlink="http://www.w3.org/1999/xlink" width="500" zoomAndPan="magnify" viewBox="0 0 375 374.999991" height="500" preserveAspectRatio="xMidYMid meet" version="1.0"><defs><clipPath id="9f7989b8fb"><path d="M 1.5 1.5 L 373.5 1.5 L 373.5 373.5 L 1.5 373.5 Z M 1.5 1.5 " clip-rule="nonzero"/></clipPath></defs><rect x="-37.5" width="450" fill="#ffffff" y="-37.499999" height="449.999989" fill-opacity="1"/><rect x="-37.5" width="450" fill="#000000" y="-37.499999" height="449.999989" fill-opacity="1"/><g clip-path="url(#9f7989b8fb)"><path fill="#e53e76" d="M 373.5 187.5 C 373.5 190.542969 373.425781 193.585938 373.277344 196.625 C 373.125 199.667969 372.902344 202.703125 372.605469 205.730469 C 372.304688 208.761719 371.933594 211.78125 371.488281 214.792969 C 371.039062 217.804688 370.519531 220.800781 369.925781 223.785156 C 369.332031 226.773438 368.664062 229.742188 367.925781 232.695312 C 367.1875 235.648438 366.375 238.578125 365.492188 241.492188 C 364.605469 244.40625 363.652344 247.296875 362.628906 250.160156 C 361.601562 253.027344 360.507812 255.867188 359.339844 258.679688 C 358.175781 261.492188 356.945312 264.273438 355.640625 267.023438 C 354.339844 269.777344 352.972656 272.496094 351.539062 275.179688 C 350.101562 277.863281 348.601562 280.511719 347.039062 283.125 C 345.472656 285.734375 343.84375 288.304688 342.152344 290.835938 C 340.460938 293.367188 338.710938 295.855469 336.898438 298.300781 C 335.082031 300.746094 333.210938 303.144531 331.28125 305.496094 C 329.347656 307.851562 327.359375 310.15625 325.316406 312.410156 C 323.273438 314.664062 321.175781 316.871094 319.023438 319.023438 C 316.871094 321.175781 314.664062 323.273438 312.410156 325.316406 C 310.15625 327.359375 307.851562 329.347656 305.496094 331.28125 C 303.144531 333.210938 300.746094 335.082031 298.300781 336.898438 C 295.855469 338.710938 293.367188 340.460938 290.835938 342.152344 C 288.304688 343.84375 285.734375 345.472656 283.125 347.039062 C 280.511719 348.601562 277.863281 350.101562 275.179688 351.539062 C 272.496094 352.972656 269.777344 354.339844 267.023438 355.640625 C 264.273438 356.945312 261.492188 358.175781 258.679688 359.339844 C 255.867188 360.507812 253.027344 361.601562 250.160156 362.628906 C 247.296875 363.652344 244.40625 364.605469 241.492188 365.492188 C 238.578125 366.375 235.648438 367.1875 232.695312 367.925781 C 229.742188 368.664062 226.773438 369.332031 223.785156 369.925781 C 220.800781 370.519531 217.804688 371.039062 214.792969 371.488281 C 211.78125 371.933594 208.761719 372.304688 205.730469 372.605469 C 202.703125 372.902344 199.667969 373.125 196.625 373.277344 C 193.585938 373.425781 190.542969 373.5 187.5 373.5 C 184.457031 373.5 181.414062 373.425781 178.375 373.277344 C 175.332031 373.125 172.296875 372.902344 169.269531 372.605469 C 166.238281 372.304688 163.21875 371.933594 160.207031 371.488281 C 157.195312 371.039062 154.199219 370.519531 151.214844 369.925781 C 148.226562 369.332031 145.257812 368.664062 142.304688 367.925781 C 139.351562 367.1875 136.421875 366.375 133.507812 365.492188 C 130.59375 364.605469 127.703125 363.652344 124.839844 362.628906 C 121.972656 361.601562 119.132812 360.507812 116.320312 359.339844 C 113.507812 358.175781 110.726562 356.945312 107.976562 355.640625 C 105.222656 354.339844 102.503906 352.972656 99.820312 351.539062 C 97.136719 350.101562 94.488281 348.601562 91.875 347.039062 C 89.265625 345.472656 86.695312 343.84375 84.164062 342.152344 C 81.632812 340.460938 79.144531 338.710938 76.699219 336.898438 C 74.253906 335.082031 71.855469 333.210938 69.503906 331.28125 C 67.148438 329.347656 64.84375 327.359375 62.589844 325.316406 C 60.335938 323.273438 58.128906 321.175781 55.976562 319.023438 C 53.824219 316.871094 51.726562 314.664062 49.683594 312.410156 C 47.640625 310.15625 45.652344 307.851562 43.71875 305.496094 C 41.789062 303.144531 39.917969 300.746094 38.101562 298.300781 C 36.289062 295.855469 34.539062 293.367188 32.847656 290.835938 C 31.15625 288.304688 29.527344 285.734375 27.960938 283.125 C 26.398438 280.511719 24.898438 277.863281 23.460938 275.179688 C 22.027344 272.496094 20.660156 269.777344 19.359375 267.023438 C 18.054688 264.273438 16.824219 261.492188 15.660156 258.679688 C 14.492188 255.867188 13.398438 253.027344 12.371094 250.160156 C 11.347656 247.296875 10.394531 244.40625 9.507812 241.492188 C 8.625 238.578125 7.8125 235.648438 7.074219 232.695312 C 6.335938 229.742188 5.667969 226.773438 5.074219 223.785156 C 4.480469 220.800781 3.960938 217.804688 3.511719 214.792969 C 3.066406 211.78125 2.695312 208.761719 2.394531 205.730469 C 2.097656 202.703125 1.875 199.667969 1.722656 196.625 C 1.574219 193.585938 1.5 190.542969 1.5 187.5 C 1.5 184.457031 1.574219 181.414062 1.722656 178.375 C 1.875 175.332031 2.097656 172.296875 2.394531 169.269531 C 2.695312 166.238281 3.066406 163.21875 3.511719 160.207031 C 3.960938 157.195312 4.480469 154.199219 5.074219 151.214844 C 5.667969 148.226562 6.335938 145.257812 7.074219 142.304688 C 7.8125 139.351562 8.625 136.421875 9.507812 133.507812 C 10.394531 130.59375 11.347656 127.703125 12.371094 124.839844 C 13.398438 121.972656 14.492188 119.132812 15.660156 116.320312 C 16.824219 113.507812 18.054688 110.726562 19.359375 107.976562 C 20.660156 105.222656 22.027344 102.503906 23.460938 99.820312 C 24.898438 97.136719 26.398438 94.488281 27.960938 91.875 C 29.527344 89.265625 31.15625 86.695312 32.847656 84.164062 C 34.539062 81.632812 36.289062 79.144531 38.101562 76.699219 C 39.917969 74.253906 41.789062 71.855469 43.71875 69.503906 C 45.652344 67.148438 47.640625 64.84375 49.683594 62.589844 C 51.726562 60.335938 53.824219 58.128906 55.976562 55.976562 C 58.128906 53.824219 60.335938 51.726562 62.589844 49.683594 C 64.84375 47.640625 67.148438 45.652344 69.503906 43.71875 C 71.855469 41.789062 74.253906 39.917969 76.699219 38.101562 C 79.144531 36.289062 81.632812 34.539062 84.164062 32.847656 C 86.695312 31.15625 89.265625 29.527344 91.875 27.960938 C 94.488281 26.398438 97.136719 24.898438 99.820312 23.460938 C 102.503906 22.027344 105.222656 20.660156 107.976562 19.359375 C 110.726562 18.054688 113.507812 16.824219 116.320312 15.660156 C 119.132812 14.492188 121.972656 13.398438 124.839844 12.371094 C 127.703125 11.347656 130.59375 10.394531 133.507812 9.507812 C 136.421875 8.625 139.351562 7.8125 142.304688 7.074219 C 145.257812 6.335938 148.226562 5.667969 151.214844 5.074219 C 154.199219 4.480469 157.195312 3.960938 160.207031 3.511719 C 163.21875 3.066406 166.238281 2.695312 169.269531 2.394531 C 172.296875 2.097656 175.332031 1.875 178.375 1.722656 C 181.414062 1.574219 184.457031 1.5 187.5 1.5 C 190.542969 1.5 193.585938 1.574219 196.625 1.722656 C 199.667969 1.875 202.703125 2.097656 205.730469 2.394531 C 208.761719 2.695312 211.78125 3.066406 214.792969 3.511719 C 217.804688 3.960938 220.800781 4.480469 223.785156 5.074219 C 226.773438 5.667969 229.742188 6.335938 232.695312 7.074219 C 235.648438 7.8125 238.578125 8.625 241.492188 9.507812 C 244.40625 10.394531 247.296875 11.347656 250.160156 12.371094 C 253.027344 13.398438 255.867188 14.492188 258.679688 15.660156 C 261.492188 16.824219 264.273438 18.054688 267.023438 19.359375 C 269.777344 20.660156 272.496094 22.027344 275.179688 23.460938 C 277.863281 24.898438 280.511719 26.398438 283.125 27.960938 C 285.734375 29.527344 288.304688 31.15625 290.835938 32.847656 C 293.367188 34.539062 295.855469 36.289062 298.300781 38.101562 C 300.746094 39.917969 303.144531 41.789062 305.496094 43.71875 C 307.851562 45.652344 310.15625 47.640625 312.410156 49.683594 C 314.664062 51.726562 316.871094 53.824219 319.023438 55.976562 C 321.175781 58.128906 323.273438 60.335938 325.316406 62.589844 C 327.359375 64.84375 329.347656 67.148438 331.28125 69.503906 C 333.210938 71.855469 335.082031 74.253906 336.898438 76.699219 C 338.710938 79.144531 340.460938 81.632812 342.152344 84.164062 C 343.84375 86.695312 345.472656 89.265625 347.039062 91.875 C 348.601562 94.488281 350.101562 97.136719 351.539062 99.820312 C 352.972656 102.503906 354.339844 105.222656 355.640625 107.976562 C 356.945312 110.726562 358.175781 113.507812 359.339844 116.320312 C 360.507812 119.132812 361.601562 121.972656 362.628906 124.839844 C 363.652344 127.703125 364.605469 130.59375 365.492188 133.507812 C 366.375 136.421875 367.1875 139.351562 367.925781 142.304688 C 368.664062 145.257812 369.332031 148.226562 369.925781 151.214844 C 370.519531 154.199219 371.039062 157.195312 371.488281 160.207031 C 371.933594 163.21875 372.304688 166.238281 372.605469 169.269531 C 372.902344 172.296875 373.125 175.332031 373.277344 178.375 C 373.425781 181.414062 373.5 184.457031 373.5 187.5 Z M 373.5 187.5 " fill-opacity="1" fill-rule="nonzero"/></g><path fill="#f6f6ec" d="M 299.585938 206.128906 C 302.65625 203.058594 306.613281 199.109375 310.542969 195.191406 C 319.300781 186.445312 319.308594 172.257812 310.546875 163.507812 L 301.265625 154.238281 C 268.035156 187.425781 218.308594 194.09375 178.445312 174.246094 C 205.390625 179.222656 233.3125 175.347656 258.054688 162.0625 C 274.605469 153.171875 277.75 130.75 264.460938 117.476562 L 209.671875 62.75 C 197.425781 50.523438 177.578125 50.523438 165.339844 62.75 L 106.28125 121.738281 C 145.175781 105.234375 191.898438 112.886719 223.527344 144.699219 C 175.269531 121.304688 115.488281 129.605469 75.417969 169.621094 C 72.347656 172.6875 68.386719 176.644531 64.457031 180.566406 C 55.703125 189.320312 55.707031 203.496094 64.457031 212.242188 L 73.734375 221.507812 C 106.964844 188.316406 156.6875 181.648438 196.554688 201.496094 C 169.609375 196.519531 141.6875 200.398438 116.945312 213.683594 C 100.394531 222.574219 97.25 244.996094 110.539062 258.265625 L 165.328125 312.992188 C 177.574219 325.222656 197.421875 325.222656 209.660156 312.992188 L 268.71875 254.003906 C 229.824219 270.507812 183.101562 262.859375 151.464844 231.046875 C 199.726562 254.441406 259.507812 246.140625 299.574219 206.125 Z M 299.585938 206.128906 " fill-opacity="1" fill-rule="nonzero"/></svg>