<svg xmlns="http://www.w3.org/2000/svg" xmlns:xlink="http://www.w3.org/1999/xlink" width="500" zoomAndPan="magnify" viewBox="0 0 375 374.999991" height="500" preserveAspectRatio="xMidYMid meet" version="1.0"><defs><clipPath id="1692c2e758"><path d="M 105 91 L 286 91 L 286 307.902344 L 105 307.902344 Z M 105 91 " clip-rule="nonzero"/></clipPath><clipPath id="09195ea62e"><path d="M 89.203125 66.828125 L 270 66.828125 L 270 284 L 89.203125 284 Z M 89.203125 66.828125 " clip-rule="nonzero"/></clipPath><clipPath id="bfac002f66"><path d="M 89.203125 278 L 115 278 L 115 307.902344 L 89.203125 307.902344 Z M 89.203125 278 " clip-rule="nonzero"/></clipPath><clipPath id="a36b05b193"><path d="M 157 66.828125 L 177 66.828125 L 177 95 L 157 95 Z M 157 66.828125 " clip-rule="nonzero"/></clipPath><clipPath id="fbcdae962c"><path d="M 248 66.828125 L 286 66.828125 L 286 95 L 248 95 Z M 248 66.828125 " clip-rule="nonzero"/></clipPath></defs><rect x="-37.5" width="450" fill="#ffffff" y="-37.499999" height="449.999989" fill-opacity="1"/><rect x="-37.5" width="450" fill="#000000" y="-37.499999" height="449.999989" fill-opacity="1"/><path fill="#ffffff" d="M 269.753906 99.289062 C 265.203125 105.804688 259.859375 113.605469 253.722656 122.691406 C 247.785156 131.773438 242.046875 141.351562 236.503906 151.421875 C 231.160156 161.496094 226.609375 171.566406 222.847656 181.636719 C 219.085938 191.710938 217.207031 200.890625 217.207031 209.1875 C 217.207031 216.691406 218.789062 222.714844 221.957031 227.253906 C 225.320312 231.601562 229.480469 235.054688 234.425781 237.621094 C 239.570312 240.191406 252.660156 241.867188 258.796875 242.660156 C 265.128906 243.449219 271.265625 243.84375 277.203125 243.84375 L 277.203125 299.53125 C 266.714844 299.53125 248.972656 298.644531 238.878906 296.867188 C 228.984375 295.089844 219.683594 292.128906 210.972656 287.980469 C 202.265625 283.832031 194.347656 278.402344 187.222656 271.6875 C 180.097656 264.972656 174.160156 256.582031 169.410156 246.507812 L 169.410156 299.53125 L 113.601562 299.53125 L 113.601562 99.289062 L 169.410156 99.289062 L 169.410156 165.9375 C 173.171875 154.089844 178.019531 142.636719 183.957031 131.578125 C 190.09375 120.519531 196.425781 109.757812 202.957031 99.289062 Z M 269.753906 99.289062 " fill-opacity="1" fill-rule="nonzero"/><g clip-path="url(#1692c2e758)"><path fill="#ffffff" d="M 285.335938 91.171875 L 276.425781 103.929688 C 271.914062 110.386719 266.605469 118.136719 260.503906 127.175781 C 254.707031 136.046875 249.09375 145.410156 243.664062 155.273438 C 238.488281 165.035156 234.09375 174.765625 230.46875 184.46875 C 226.953125 193.890625 225.34375 202.097656 225.34375 209.183594 C 225.34375 215.488281 226.648438 219.6875 228.527344 222.460938 C 231.121094 225.765625 234.296875 228.398438 238.125 230.390625 C 242.375 232.503906 254.554688 233.925781 259.824219 234.605469 C 265.839844 235.355469 271.632812 235.726562 277.203125 235.726562 L 285.335938 235.726562 L 285.335938 307.644531 L 277.203125 307.644531 C 266.25 307.644531 248.039062 306.71875 237.464844 304.855469 L 237.453125 304.855469 L 237.4375 304.851562 C 226.859375 302.953125 216.859375 299.773438 207.46875 295.300781 C 197.988281 290.785156 189.371094 284.871094 181.640625 277.585938 C 180.230469 276.257812 178.867188 274.871094 177.546875 273.433594 L 177.546875 307.644531 L 105.46875 307.644531 L 105.46875 91.171875 L 177.546875 91.171875 L 177.546875 126.382812 C 183.527344 115.648438 189.699219 105.1875 196.054688 95 L 198.441406 91.171875 Z M 177.546875 144.613281 C 174.425781 151.574219 171.714844 158.679688 169.410156 165.9375 L 169.410156 99.289062 L 113.601562 99.289062 L 113.601562 299.53125 L 169.410156 299.53125 L 169.410156 246.507812 C 171.816406 251.609375 174.53125 256.28125 177.546875 260.523438 C 180.484375 264.652344 183.710938 268.375 187.222656 271.6875 C 194.347656 278.402344 202.265625 283.832031 210.972656 287.976562 C 219.683594 292.125 228.984375 295.085938 238.878906 296.863281 C 246.351562 298.179688 261.382812 299.007812 269.070312 299.351562 C 271.769531 299.46875 274.476562 299.53125 277.203125 299.53125 L 277.203125 243.84375 C 271.265625 243.84375 265.132812 243.445312 258.796875 242.65625 C 252.664062 241.867188 239.570312 240.1875 234.425781 237.621094 C 229.480469 235.054688 225.324219 231.597656 221.957031 227.253906 C 218.792969 222.710938 217.207031 216.6875 217.207031 209.183594 C 217.207031 200.890625 219.089844 191.707031 222.847656 181.636719 C 226.609375 171.566406 231.160156 161.496094 236.503906 151.421875 C 242.046875 141.351562 247.785156 131.773438 253.722656 122.691406 C 257.492188 117.109375 260.960938 112.015625 264.132812 107.402344 C 266.125 104.507812 267.996094 101.800781 269.753906 99.289062 L 202.957031 99.289062 C 196.425781 109.753906 190.09375 120.515625 183.957031 131.574219 C 181.65625 135.863281 179.519531 140.207031 177.546875 144.613281 Z M 177.546875 144.613281 " fill-opacity="1" fill-rule="evenodd"/></g><path fill="#000000" d="M 253.484375 74.941406 C 248.933594 81.457031 243.589844 89.257812 237.457031 98.34375 C 231.519531 107.425781 225.777344 117.003906 220.238281 127.074219 C 214.894531 137.148438 210.339844 147.21875 206.582031 157.289062 C 202.820312 167.359375 200.941406 176.542969 200.941406 184.835938 C 200.941406 192.34375 202.523438 198.363281 205.691406 202.90625 C 209.054688 207.25 213.210938 210.707031 218.160156 213.273438 C 223.304688 215.839844 228.945312 217.519531 235.082031 218.308594 C 241.414062 219.101562 255 219.496094 260.933594 219.496094 L 260.933594 275.183594 C 250.445312 275.183594 232.707031 274.292969 222.613281 272.519531 C 212.714844 270.742188 203.414062 267.777344 194.707031 263.632812 C 185.996094 259.484375 178.082031 254.054688 170.957031 247.339844 C 163.832031 240.625 157.894531 232.234375 153.144531 222.160156 L 153.144531 275.183594 L 97.332031 275.183594 L 97.332031 74.941406 L 153.144531 74.941406 L 153.144531 141.589844 C 156.90625 129.742188 161.753906 118.289062 167.691406 107.230469 C 173.824219 96.171875 180.160156 85.40625 186.691406 74.941406 Z M 253.484375 74.941406 " fill-opacity="1" fill-rule="nonzero"/><g clip-path="url(#09195ea62e)"><path fill="#ffffff" d="M 269.070312 66.828125 L 260.160156 79.582031 C 255.648438 86.042969 250.339844 93.789062 244.234375 102.828125 C 238.4375 111.699219 232.824219 121.0625 227.398438 130.925781 C 222.222656 140.6875 217.828125 150.417969 214.203125 160.125 C 210.6875 169.542969 209.074219 177.75 209.074219 184.839844 C 209.074219 191.144531 210.382812 195.339844 212.257812 198.117188 C 214.855469 201.421875 218.03125 204.050781 221.855469 206.046875 C 226.109375 208.160156 230.835938 209.582031 236.105469 210.261719 C 242.125 211.011719 255.367188 211.378906 260.9375 211.378906 L 269.070312 211.378906 L 269.070312 283.300781 L 260.9375 283.300781 C 249.984375 283.300781 231.769531 282.371094 221.199219 280.511719 L 221.183594 280.507812 L 221.171875 280.503906 C 210.59375 278.605469 200.59375 275.425781 191.203125 270.957031 C 181.71875 266.441406 173.101562 260.523438 165.371094 253.238281 C 163.960938 251.910156 162.597656 250.527344 161.277344 249.089844 L 161.277344 283.300781 L 89.199219 283.300781 L 89.199219 66.828125 L 161.277344 66.828125 L 161.277344 102.035156 C 167.261719 91.300781 173.429688 80.839844 179.785156 70.652344 L 182.175781 66.828125 Z M 161.277344 120.265625 C 158.160156 127.226562 155.449219 134.335938 153.144531 141.589844 L 153.144531 74.941406 L 97.332031 74.941406 L 97.332031 275.183594 L 153.144531 275.183594 L 153.144531 222.164062 C 155.550781 227.265625 158.261719 231.933594 161.277344 236.175781 C 164.214844 240.304688 167.441406 244.027344 170.957031 247.339844 C 178.082031 254.054688 185.996094 259.484375 194.707031 263.632812 C 203.414062 267.78125 212.71875 270.742188 222.613281 272.519531 C 230.082031 273.835938 237.664062 274.664062 245.355469 275.003906 C 248.050781 275.125 258.210938 275.183594 260.9375 275.183594 L 260.9375 219.496094 C 255 219.496094 241.414062 219.101562 235.082031 218.3125 C 228.945312 217.519531 223.304688 215.84375 218.160156 213.277344 C 213.210938 210.707031 209.054688 207.253906 205.691406 202.90625 C 202.523438 198.367188 200.941406 192.34375 200.941406 184.839844 C 200.941406 176.542969 202.820312 167.363281 206.582031 157.289062 C 210.34375 147.21875 214.894531 137.148438 220.238281 127.078125 C 225.777344 117.003906 231.519531 107.425781 237.457031 98.34375 C 241.222656 92.765625 244.695312 87.667969 247.863281 83.058594 C 249.855469 80.160156 251.730469 77.457031 253.488281 74.941406 L 186.691406 74.941406 C 180.160156 85.410156 173.828125 96.171875 167.691406 107.230469 C 165.390625 111.515625 163.253906 115.863281 161.277344 120.265625 Z M 161.277344 120.265625 " fill-opacity="1" fill-rule="evenodd"/></g><g clip-path="url(#bfac002f66)"><path fill="#ffffff" d="M 105.472656 307.636719 L 89.203125 283.289062 L 90.394531 281.550781 L 112.03125 278.996094 L 114.167969 299.726562 Z M 105.472656 307.636719 " fill-opacity="1" fill-rule="nonzero"/></g><path fill="#ffffff" d="M 285.316406 235.738281 L 269.046875 211.386719 L 265.800781 219.601562 L 266.609375 238.839844 Z M 285.316406 235.738281 " fill-opacity="1" fill-rule="nonzero"/><g clip-path="url(#a36b05b193)"><path fill="#ffffff" d="M 176.695312 90.328125 L 161.222656 66.867188 L 157.976562 75.078125 L 158.785156 94.316406 Z M 176.695312 90.328125 " fill-opacity="1" fill-rule="nonzero"/></g><g clip-path="url(#fbcdae962c)"><path fill="#ffffff" d="M 285.328125 91.175781 L 269.0625 66.839844 L 258.957031 73.628906 L 248.300781 94.6875 L 285.070312 91.503906 Z M 285.328125 91.175781 " fill-opacity="1" fill-rule="nonzero"/></g><path fill="#ffffff" d="M 152.914062 166.066406 C 152.914062 166.507812 160.125 108.761719 190.898438 74.910156 L 182.695312 73.601562 L 167.871094 87.992188 L 153.136719 74.910156 C 153.136719 114.601562 152.914062 127.464844 152.914062 166.066406 Z M 152.914062 166.066406 " fill-opacity="1" fill-rule="nonzero"/></svg>