<svg xmlns="http://www.w3.org/2000/svg" xmlns:xlink="http://www.w3.org/1999/xlink" width="500" zoomAndPan="magnify" viewBox="0 0 375 374.999991" height="500" preserveAspectRatio="xMidYMid meet" version="1.0"><rect x="-37.5" width="450" fill="#ffffff" y="-37.499999" height="449.999989" fill-opacity="1"/><rect x="-37.5" width="450" fill="#000000" y="-37.499999" height="449.999989" fill-opacity="1"/><path fill="#958fdc" d="M 375 187.5 C 375 190.570312 374.925781 193.636719 374.773438 196.699219 C 374.625 199.765625 374.398438 202.824219 374.097656 205.878906 C 373.796875 208.933594 373.421875 211.976562 372.96875 215.011719 C 372.519531 218.046875 371.996094 221.070312 371.398438 224.078125 C 370.796875 227.089844 370.125 230.082031 369.378906 233.058594 C 368.636719 236.035156 367.816406 238.992188 366.925781 241.929688 C 366.035156 244.863281 365.074219 247.777344 364.039062 250.667969 C 363.003906 253.554688 361.902344 256.417969 360.726562 259.253906 C 359.554688 262.089844 358.308594 264.894531 356.996094 267.667969 C 355.6875 270.441406 354.308594 273.179688 352.859375 275.886719 C 351.414062 278.59375 349.902344 281.261719 348.324219 283.894531 C 346.746094 286.527344 345.105469 289.117188 343.402344 291.667969 C 341.695312 294.222656 339.929688 296.730469 338.101562 299.195312 C 336.273438 301.660156 334.386719 304.078125 332.4375 306.449219 C 330.492188 308.820312 328.488281 311.144531 326.429688 313.417969 C 324.367188 315.691406 322.253906 317.914062 320.082031 320.082031 C 317.914062 322.253906 315.691406 324.367188 313.417969 326.429688 C 311.144531 328.488281 308.820312 330.492188 306.449219 332.4375 C 304.078125 334.386719 301.660156 336.273438 299.195312 338.101562 C 296.730469 339.929688 294.222656 341.695312 291.667969 343.402344 C 289.117188 345.105469 286.527344 346.746094 283.894531 348.324219 C 281.261719 349.902344 278.59375 351.414062 275.886719 352.859375 C 273.179688 354.308594 270.441406 355.6875 267.667969 356.996094 C 264.894531 358.308594 262.089844 359.554688 259.253906 360.726562 C 256.417969 361.902344 253.554688 363.003906 250.667969 364.039062 C 247.777344 365.074219 244.863281 366.035156 241.929688 366.925781 C 238.992188 367.816406 236.035156 368.636719 233.058594 369.378906 C 230.082031 370.125 227.089844 370.796875 224.078125 371.398438 C 221.070312 371.996094 218.046875 372.519531 215.011719 372.96875 C 211.976562 373.421875 208.933594 373.796875 205.878906 374.097656 C 202.824219 374.398438 199.765625 374.625 196.699219 374.773438 C 193.636719 374.925781 190.570312 375 187.5 375 C 184.429688 375 181.363281 374.925781 178.300781 374.773438 C 175.234375 374.625 172.175781 374.398438 169.121094 374.097656 C 166.066406 373.796875 163.023438 373.421875 159.988281 372.96875 C 156.953125 372.519531 153.929688 371.996094 150.921875 371.398438 C 147.910156 370.796875 144.917969 370.125 141.941406 369.378906 C 138.964844 368.636719 136.007812 367.816406 133.070312 366.925781 C 130.136719 366.035156 127.222656 365.074219 124.332031 364.039062 C 121.445312 363.003906 118.582031 361.902344 115.746094 360.726562 C 112.910156 359.554688 110.105469 358.308594 107.332031 356.996094 C 104.558594 355.6875 101.820312 354.308594 99.113281 352.859375 C 96.40625 351.414062 93.738281 349.902344 91.105469 348.324219 C 88.472656 346.746094 85.882812 345.105469 83.332031 343.402344 C 80.777344 341.695312 78.269531 339.929688 75.804688 338.101562 C 73.339844 336.273438 70.921875 334.386719 68.550781 332.4375 C 66.179688 330.492188 63.855469 328.488281 61.582031 326.429688 C 59.308594 324.367188 57.085938 322.253906 54.917969 320.082031 C 52.746094 317.914062 50.632812 315.691406 48.570312 313.417969 C 46.511719 311.144531 44.507812 308.820312 42.558594 306.449219 C 40.613281 304.078125 38.726562 301.660156 36.898438 299.195312 C 35.070312 296.730469 33.304688 294.222656 31.597656 291.667969 C 29.894531 289.117188 28.253906 286.527344 26.675781 283.894531 C 25.097656 281.261719 23.585938 278.59375 22.140625 275.886719 C 20.691406 273.179688 19.3125 270.441406 18.003906 267.667969 C 16.691406 264.894531 15.445312 262.089844 14.273438 259.253906 C 13.097656 256.417969 11.996094 253.554688 10.960938 250.667969 C 9.925781 247.777344 8.964844 244.863281 8.074219 241.929688 C 7.183594 238.992188 6.363281 236.035156 5.621094 233.058594 C 4.875 230.082031 4.203125 227.089844 3.601562 224.078125 C 3.003906 221.070312 2.480469 218.046875 2.03125 215.011719 C 1.578125 211.976562 1.203125 208.933594 0.902344 205.878906 C 0.601562 202.824219 0.375 199.765625 0.226562 196.699219 C 0.0742188 193.636719 0 190.570312 0 187.5 C 0 184.429688 0.0742188 181.363281 0.226562 178.300781 C 0.375 175.234375 0.601562 172.175781 0.902344 169.121094 C 1.203125 166.066406 1.578125 163.023438 2.03125 159.988281 C 2.480469 156.953125 3.003906 153.929688 3.601562 150.921875 C 4.203125 147.910156 4.875 144.917969 5.621094 141.941406 C 6.363281 138.964844 7.183594 136.007812 8.074219 133.070312 C 8.964844 130.136719 9.925781 127.222656 10.960938 124.332031 C 11.996094 121.445312 13.097656 118.582031 14.273438 115.746094 C 15.445312 112.910156 16.691406 110.105469 18.003906 107.332031 C 19.3125 104.558594 20.691406 101.820312 22.140625 99.113281 C 23.585938 96.40625 25.097656 93.738281 26.675781 91.105469 C 28.253906 88.472656 29.894531 85.882812 31.597656 83.332031 C 33.304688 80.777344 35.070312 78.269531 36.898438 75.804688 C 38.726562 73.339844 40.613281 70.921875 42.558594 68.550781 C 44.507812 66.179688 46.511719 63.855469 48.570312 61.582031 C 50.632812 59.308594 52.746094 57.085938 54.917969 54.917969 C 57.085938 52.746094 59.308594 50.632812 61.582031 48.570312 C 63.855469 46.511719 66.179688 44.507812 68.550781 42.558594 C 70.921875 40.613281 73.339844 38.726562 75.804688 36.898438 C 78.269531 35.070312 80.777344 33.304688 83.332031 31.597656 C 85.882812 29.894531 88.472656 28.253906 91.105469 26.675781 C 93.738281 25.097656 96.40625 23.585938 99.113281 22.140625 C 101.820312 20.691406 104.558594 19.3125 107.332031 18.003906 C 110.105469 16.691406 112.910156 15.445312 115.746094 14.273438 C 118.582031 13.097656 121.445312 11.996094 124.332031 10.960938 C 127.222656 9.925781 130.136719 8.964844 133.070312 8.074219 C 136.007812 7.183594 138.964844 6.363281 141.941406 5.617188 C 144.917969 4.875 147.910156 4.203125 150.921875 3.601562 C 153.929688 3.003906 156.953125 2.480469 159.988281 2.03125 C 163.023438 1.578125 166.066406 1.203125 169.121094 0.902344 C 172.175781 0.601562 175.234375 0.375 178.300781 0.226562 C 181.363281 0.0742188 184.429688 0 187.5 0 C 190.570312 0 193.636719 0.0742188 196.699219 0.226562 C 199.765625 0.375 202.824219 0.601562 205.878906 0.902344 C 208.933594 1.203125 211.976562 1.578125 215.011719 2.03125 C 218.046875 2.480469 221.070312 3.003906 224.078125 3.601562 C 227.089844 4.203125 230.082031 4.875 233.058594 5.617188 C 236.035156 6.363281 238.992188 7.183594 241.929688 8.074219 C 244.863281 8.964844 247.777344 9.925781 250.667969 10.960938 C 253.554688 11.996094 256.417969 13.097656 259.253906 14.273438 C 262.089844 15.445312 264.894531 16.691406 267.667969 18.003906 C 270.441406 19.3125 273.179688 20.691406 275.886719 22.140625 C 278.59375 23.585938 281.261719 25.097656 283.894531 26.675781 C 286.527344 28.253906 289.117188 29.894531 291.667969 31.597656 C 294.222656 33.304688 296.730469 35.070312 299.195312 36.898438 C 301.660156 38.726562 304.078125 40.613281 306.449219 42.558594 C 308.820312 44.507812 311.144531 46.511719 313.417969 48.570312 C 315.691406 50.632812 317.914062 52.746094 320.082031 54.917969 C 322.253906 57.085938 324.367188 59.308594 326.429688 61.582031 C 328.488281 63.855469 330.492188 66.179688 332.4375 68.550781 C 334.386719 70.921875 336.273438 73.339844 338.101562 75.804688 C 339.929688 78.269531 341.695312 80.777344 343.402344 83.332031 C 345.105469 85.882812 346.746094 88.472656 348.324219 91.105469 C 349.902344 93.738281 351.414062 96.40625 352.859375 99.113281 C 354.308594 101.820312 355.6875 104.558594 356.996094 107.332031 C 358.308594 110.105469 359.554688 112.910156 360.726562 115.746094 C 361.902344 118.582031 363.003906 121.445312 364.039062 124.332031 C 365.074219 127.222656 366.035156 130.136719 366.925781 133.070312 C 367.816406 136.007812 368.636719 138.964844 369.378906 141.941406 C 370.125 144.917969 370.796875 147.910156 371.398438 150.921875 C 371.996094 153.929688 372.519531 156.953125 372.96875 159.988281 C 373.421875 163.023438 373.796875 166.066406 374.097656 169.121094 C 374.398438 172.175781 374.625 175.234375 374.773438 178.300781 C 374.925781 181.363281 375 184.429688 375 187.5 Z M 375 187.5 " fill-opacity="1" fill-rule="nonzero"/><path fill="#2b1d3c" d="M 318.542969 187.660156 C 318.542969 116.023438 260.207031 57.953125 188.257812 57.953125 C 116.304688 57.953125 57.953125 116.023438 57.953125 187.660156 C 57.953125 202.472656 60.453125 216.695312 65.039062 229.957031 C 65.070312 230.015625 65.320312 230.773438 65.320312 230.773438 C 67.171875 236.644531 57.984375 238.941406 57.984375 242.453125 C 57.984375 247.957031 77.359375 247.210938 77.359375 253.605469 C 77.359375 259.179688 58.191406 260.910156 58.191406 266.527344 C 58.191406 274.296875 100.632812 271.589844 101.179688 278.265625 C 101.589844 283.417969 86.578125 283.738281 86.492188 289.242188 C 86.34375 298.039062 144.414062 295.152344 144.414062 301.007812 C 144.414062 305.441406 117.996094 303.832031 117.996094 309.074219 C 117.996094 314.3125 152.765625 317.617188 191.09375 317.617188 C 229.421875 317.617188 255.855469 313.375 255.855469 308.792969 C 255.855469 304.214844 231.1875 305.148438 231.699219 301.023438 C 232.582031 293.808594 287.347656 297.496094 287.347656 289.140625 C 287.347656 284.734375 272.292969 283.710938 272.777344 278.96875 C 273.46875 272.265625 318.542969 273.261719 318.542969 266.292969 C 318.542969 260.820312 296.199219 259.472656 296.242188 253.78125 C 296.269531 247.972656 318.542969 248.21875 318.394531 242.773438 C 318.277344 238.589844 308.429688 238.691406 311.515625 229.824219 C 316.074219 216.609375 318.574219 202.425781 318.574219 187.660156 Z M 277.144531 224.496094 C 272.617188 234.699219 262.441406 232.648438 261.296875 236.9375 C 260.105469 241.371094 273.835938 242.015625 273.835938 246.652344 C 273.835938 252.289062 231.980469 250.035156 232.390625 257.46875 C 232.65625 262.152344 262.117188 262.941406 261.558594 267.832031 C 260.75 274.914062 215.910156 271.375 215.46875 278.164062 C 215.144531 283.140625 237.359375 283.316406 237.40625 287.851562 C 237.449219 291.671875 219.96875 293.75 186.476562 293.75 C 148.339844 293.75 129.789062 291.699219 131.90625 287.441406 C 133.875 283.460938 167.644531 284.195312 167.304688 277.929688 C 166.96875 271.679688 107.335938 273.507812 105.542969 267.4375 C 104.042969 262.386719 125.140625 261.347656 125.007812 256.546875 C 124.878906 251.660156 98.003906 252.769531 97.414062 246.84375 C 97.03125 242.96875 111.453125 243.199219 110.835938 238.3125 C 110.382812 234.757812 104.425781 235.253906 100.898438 227.921875 C 95.207031 215.671875 92.003906 202.03125 92.003906 187.644531 C 92.003906 134.726562 135.109375 91.816406 188.269531 91.816406 C 241.433594 91.816406 284.539062 134.726562 284.539062 187.644531 C 284.539062 200.699219 281.90625 213.140625 277.15625 224.480469 Z M 277.144531 224.496094 " fill-opacity="1" fill-rule="nonzero"/><path fill="#2b1d3c" d="M 65.039062 229.957031 C 60.453125 216.695312 57.953125 202.472656 57.953125 187.660156 C 57.953125 116.023438 116.304688 57.953125 188.257812 57.953125 C 260.207031 57.953125 318.542969 116.023438 318.542969 187.660156 L 318.574219 187.660156 C 318.574219 188.011719 318.570312 188.359375 318.570312 188.707031 C 318.453125 203.097656 315.964844 216.921875 311.515625 229.824219 C 309.601562 235.324219 312.660156 237.371094 315.289062 239.136719 C 316.902344 240.214844 318.351562 241.1875 318.394531 242.773438 C 318.46875 245.457031 313.097656 246.757812 307.625 248.082031 C 301.992188 249.449219 296.257812 250.835938 296.242188 253.78125 C 296.21875 256.65625 301.914062 258.425781 307.550781 260.175781 C 313.074219 261.886719 318.542969 263.585938 318.542969 266.292969 C 318.542969 269.820312 306.980469 271.308594 295.480469 272.785156 C 284.269531 274.226562 273.121094 275.660156 272.777344 278.96875 C 272.527344 281.40625 276.382812 282.859375 280.191406 284.296875 C 283.789062 285.65625 287.347656 287 287.347656 289.140625 C 287.347656 293.480469 272.570312 294.570312 258.242188 295.628906 C 244.988281 296.605469 232.125 297.554688 231.699219 301.023438 C 231.449219 303.042969 237.222656 303.847656 243.1875 304.683594 C 249.417969 305.554688 255.855469 306.453125 255.855469 308.792969 C 255.855469 313.375 229.421875 317.617188 191.09375 317.617188 C 152.765625 317.617188 117.996094 314.3125 117.996094 309.074219 C 117.996094 306.34375 125.164062 305.472656 132.03125 304.636719 C 138.351562 303.871094 144.414062 303.132812 144.414062 301.007812 C 144.414062 298.378906 132.703125 297.511719 119.808594 296.558594 C 103.996094 295.386719 86.410156 294.085938 86.492188 289.242188 C 86.535156 286.46875 90.367188 285.011719 94.105469 283.589844 C 97.789062 282.191406 101.382812 280.820312 101.179688 278.265625 C 100.917969 275.0625 91.007812 274.023438 80.765625 272.945312 C 69.671875 271.777344 58.191406 270.570312 58.191406 266.527344 C 58.191406 263.714844 63 261.875 67.804688 260.039062 C 72.585938 258.214844 77.359375 256.386719 77.359375 253.605469 C 77.359375 250.289062 72.144531 248.890625 67.125 247.550781 C 62.472656 246.300781 57.984375 245.101562 57.984375 242.453125 C 57.984375 241.019531 59.519531 239.785156 61.207031 238.429688 C 63.648438 236.46875 66.414062 234.246094 65.320312 230.773438 C 65.320312 230.773438 65.070312 230.015625 65.039062 229.957031 Z M 64.324219 231.097656 C 64.691406 232.261719 64.515625 233.207031 64.039062 234.078125 C 63.535156 234.996094 62.6875 235.839844 61.671875 236.699219 C 61.34375 236.976562 60.980469 237.269531 60.613281 237.566406 C 59.929688 238.117188 59.222656 238.679688 58.667969 239.21875 C 57.808594 240.042969 56.9375 241.113281 56.9375 242.453125 C 56.9375 243.488281 57.40625 244.335938 58.085938 245 C 58.746094 245.644531 59.632812 246.152344 60.589844 246.578125 C 62.347656 247.355469 64.625 247.964844 66.835938 248.554688 C 67.023438 248.605469 67.214844 248.65625 67.402344 248.707031 C 69.84375 249.363281 72.160156 250.015625 73.863281 250.875 C 75.609375 251.753906 76.316406 252.640625 76.316406 253.605469 C 76.316406 253.976562 76.164062 254.375 75.753906 254.835938 C 75.335938 255.308594 74.695312 255.789062 73.84375 256.28125 C 72.132812 257.265625 69.824219 258.148438 67.402344 259.074219 L 67.371094 259.085938 C 65.007812 259.988281 62.539062 260.929688 60.664062 262.015625 C 59.71875 262.5625 58.859375 263.179688 58.230469 263.898438 C 57.589844 264.625 57.144531 265.503906 57.144531 266.527344 C 57.144531 268.058594 58.207031 269.140625 59.484375 269.890625 C 60.785156 270.65625 62.566406 271.242188 64.589844 271.71875 C 68.652344 272.683594 74.046875 273.289062 79.371094 273.851562 C 79.796875 273.894531 80.222656 273.941406 80.644531 273.984375 C 85.566406 274.503906 90.347656 275.003906 94.027344 275.734375 C 96.03125 276.132812 97.632812 276.585938 98.722656 277.109375 C 99.882812 277.664062 100.117188 278.121094 100.136719 278.351562 C 100.1875 279.019531 99.785156 279.699219 98.515625 280.492188 C 97.273438 281.265625 95.546875 281.921875 93.660156 282.640625 L 93.652344 282.640625 C 91.820312 283.339844 89.84375 284.09375 88.328125 285.042969 C 86.824219 285.980469 85.476562 287.300781 85.445312 289.222656 C 85.417969 290.988281 86.851562 292.171875 88.476562 292.972656 C 90.175781 293.808594 92.542969 294.460938 95.28125 294.996094 C 100.773438 296.066406 108.078125 296.714844 115.316406 297.273438 C 116.804688 297.386719 118.285156 297.496094 119.75 297.605469 C 125.460938 298.027344 130.910156 298.429688 135.214844 298.976562 C 137.921875 299.320312 140.113281 299.710938 141.609375 300.183594 C 142.363281 300.417969 142.863281 300.652344 143.160156 300.863281 C 143.273438 300.945312 143.332031 301.003906 143.359375 301.039062 C 143.351562 301.050781 143.339844 301.074219 143.316406 301.101562 C 143.238281 301.199219 143.078125 301.332031 142.785156 301.492188 C 142.191406 301.8125 141.273438 302.109375 140.058594 302.382812 C 137.84375 302.875 134.933594 303.230469 131.890625 303.601562 C 131.621094 303.632812 131.351562 303.664062 131.078125 303.699219 C 127.792969 304.097656 124.417969 304.535156 121.859375 305.210938 C 120.585938 305.550781 119.425781 305.96875 118.566406 306.523438 C 117.707031 307.074219 116.953125 307.902344 116.953125 309.074219 C 116.953125 310.34375 117.980469 311.238281 119.042969 311.851562 C 120.183594 312.507812 121.792969 313.097656 123.753906 313.628906 C 127.691406 314.699219 133.300781 315.605469 140.058594 316.351562 C 153.589844 317.839844 171.90625 318.664062 191.09375 318.664062 C 210.289062 318.664062 226.53125 317.605469 237.996094 315.960938 C 243.71875 315.140625 248.292969 314.171875 251.460938 313.097656 C 253.039062 312.5625 254.324219 311.984375 255.242188 311.347656 C 256.113281 310.742188 256.902344 309.902344 256.902344 308.792969 C 256.902344 307.679688 256.136719 306.917969 255.347656 306.425781 C 254.546875 305.921875 253.464844 305.535156 252.28125 305.21875 C 249.898438 304.574219 246.761719 304.125 243.730469 303.699219 L 243.367188 303.648438 C 240.417969 303.238281 237.601562 302.84375 235.511719 302.316406 C 234.417969 302.042969 233.621094 301.753906 233.132812 301.457031 C 232.890625 301.3125 232.785156 301.199219 232.746094 301.144531 C 232.746094 301.140625 232.742188 301.136719 232.738281 301.132812 C 232.757812 301.035156 232.832031 300.851562 233.136719 300.601562 C 233.460938 300.332031 233.980469 300.042969 234.71875 299.761719 C 236.191406 299.195312 238.316406 298.730469 240.921875 298.332031 C 245.730469 297.601562 251.957031 297.144531 258.332031 296.671875 C 258.863281 296.632812 259.398438 296.59375 259.929688 296.550781 C 266.816406 296.042969 273.75 295.492188 278.964844 294.535156 C 281.5625 294.0625 283.8125 293.472656 285.441406 292.699219 C 286.992188 291.960938 288.390625 290.84375 288.390625 289.140625 C 288.390625 288.261719 288.007812 287.527344 287.480469 286.933594 C 286.960938 286.351562 286.261719 285.867188 285.511719 285.445312 C 284.117188 284.660156 282.308594 283.976562 280.585938 283.328125 C 280.472656 283.285156 280.363281 283.242188 280.25 283.199219 C 278.375 282.492188 276.640625 281.816406 275.398438 281.046875 C 274.105469 280.246094 273.761719 279.605469 273.816406 279.074219 C 273.839844 278.839844 274.125 278.34375 275.398438 277.726562 C 276.582031 277.152344 278.304688 276.636719 280.445312 276.160156 C 284.609375 275.238281 290.085938 274.535156 295.644531 273.820312 L 296.054688 273.769531 C 301.714844 273.039062 307.425781 272.296875 311.726562 271.292969 C 313.871094 270.789062 315.738281 270.207031 317.09375 269.488281 C 318.378906 268.8125 319.589844 267.800781 319.589844 266.292969 C 319.589844 265.214844 319.03125 264.339844 318.296875 263.652344 C 317.570312 262.972656 316.585938 262.394531 315.496094 261.882812 C 313.378906 260.886719 310.601562 260.023438 307.902344 259.1875 L 307.683594 259.121094 C 304.871094 258.246094 302.164062 257.398438 300.164062 256.425781 C 299.160156 255.941406 298.40625 255.457031 297.917969 254.980469 C 297.4375 254.511719 297.285156 254.121094 297.285156 253.789062 L 297.285156 253.785156 C 297.289062 253.4375 297.445312 253.066406 297.914062 252.636719 C 298.398438 252.195312 299.140625 251.761719 300.140625 251.339844 C 302.136719 250.503906 304.832031 249.835938 307.632812 249.160156 L 307.914062 249.089844 C 310.574219 248.445312 313.308594 247.785156 315.390625 246.945312 C 316.46875 246.511719 317.453125 246 318.179688 245.359375 C 318.921875 244.703125 319.472656 243.835938 319.441406 242.746094 C 319.398438 241.226562 318.453125 240.191406 317.492188 239.417969 C 317.007812 239.023438 316.457031 238.65625 315.933594 238.308594 L 315.882812 238.269531 C 315.367188 237.925781 314.867188 237.589844 314.390625 237.226562 C 313.410156 236.472656 312.640625 235.667969 312.25 234.628906 C 311.867188 233.613281 311.792969 232.21875 312.503906 230.167969 L 312.503906 230.164062 C 317.101562 216.84375 319.621094 202.546875 319.621094 187.660156 L 319.621094 186.613281 L 319.585938 186.613281 C 319.019531 114.875 260.429688 56.90625 188.257812 56.90625 C 115.734375 56.90625 56.910156 115.4375 56.910156 187.660156 C 56.910156 202.589844 59.429688 216.929688 64.054688 230.296875 L 64.074219 230.363281 L 64.085938 230.382812 C 64.089844 230.398438 64.097656 230.421875 64.109375 230.453125 C 64.136719 230.527344 64.167969 230.621094 64.199219 230.71875 C 64.234375 230.816406 64.265625 230.914062 64.289062 230.984375 L 64.316406 231.070312 L 64.324219 231.089844 M 143.382812 301.074219 C 143.382812 301.074219 143.378906 301.070312 143.378906 301.0625 C 143.382812 301.070312 143.382812 301.074219 143.382812 301.074219 Z M 277.15625 224.480469 C 281.90625 213.140625 284.539062 200.699219 284.539062 187.644531 C 284.539062 134.726562 241.433594 91.816406 188.269531 91.816406 C 135.109375 91.816406 92.003906 134.726562 92.003906 187.644531 C 92.003906 202.03125 95.207031 215.671875 100.898438 227.921875 C 102.863281 232.003906 105.582031 233.660156 107.683594 234.941406 C 109.355469 235.957031 110.636719 236.738281 110.835938 238.3125 C 111.164062 240.902344 107.269531 242.054688 103.589844 243.144531 C 100.328125 244.105469 97.234375 245.019531 97.414062 246.84375 C 97.722656 249.941406 105.210938 251.117188 112.308594 252.230469 C 118.789062 253.246094 124.945312 254.214844 125.007812 256.546875 C 125.074219 258.871094 120.160156 260.3125 115.242188 261.757812 C 110.007812 263.292969 104.769531 264.832031 105.542969 267.4375 C 106.429688 270.4375 121.445312 271.507812 136.449219 272.578125 C 151.800781 273.675781 167.136719 274.769531 167.304688 277.929688 C 167.496094 281.46875 156.804688 282.773438 147.105469 283.957031 C 139.640625 284.867188 132.761719 285.710938 131.90625 287.441406 C 129.789062 291.699219 148.339844 293.75 186.476562 293.75 C 219.96875 293.75 237.449219 291.671875 237.40625 287.851562 C 237.382812 285.644531 232.117188 284.46875 226.75 283.273438 C 221.082031 282.007812 215.304688 280.71875 215.46875 278.164062 C 215.6875 274.800781 226.792969 273.972656 238.046875 273.132812 C 249.523438 272.277344 261.152344 271.40625 261.558594 267.832031 C 261.84375 265.339844 254.339844 263.914062 246.871094 262.496094 C 239.679688 261.125 232.519531 259.765625 232.390625 257.46875 C 232.171875 253.492188 244.0625 252.285156 255.160156 251.164062 C 264.796875 250.1875 273.835938 249.273438 273.835938 246.652344 C 273.835938 244.367188 270.496094 243.050781 267.253906 241.773438 C 263.921875 240.460938 260.691406 239.183594 261.296875 236.9375 C 261.757812 235.210938 263.679688 234.511719 266.105469 233.628906 C 269.710938 232.316406 274.4375 230.59375 277.144531 224.496094 Z M 276.273438 223.886719 C 280.917969 212.722656 283.492188 200.484375 283.492188 187.644531 C 283.492188 135.3125 240.863281 92.863281 188.269531 92.863281 C 135.679688 92.863281 93.050781 135.3125 93.050781 187.644531 C 93.050781 201.871094 96.21875 215.359375 101.84375 227.472656 C 103.484375 230.878906 105.667969 232.457031 107.570312 233.644531 C 107.769531 233.769531 107.976562 233.890625 108.179688 234.015625 C 108.921875 234.464844 109.667969 234.921875 110.257812 235.414062 C 111.066406 236.09375 111.714844 236.949219 111.875 238.179688 C 112.109375 240.054688 110.835938 241.28125 109.46875 242.070312 C 108.085938 242.867188 106.230469 243.449219 104.511719 243.960938 C 104.300781 244.023438 104.09375 244.085938 103.886719 244.144531 C 102.34375 244.601562 100.9375 245.019531 99.878906 245.511719 C 99.28125 245.789062 98.886719 246.050781 98.664062 246.289062 C 98.464844 246.496094 98.441406 246.628906 98.453125 246.742188 C 98.484375 247.050781 98.691406 247.441406 99.355469 247.902344 C 100.019531 248.359375 101 248.78125 102.265625 249.171875 C 104.785156 249.953125 108.125 250.511719 111.546875 251.050781 C 111.855469 251.101562 112.167969 251.148438 112.480469 251.199219 C 115.550781 251.679688 118.621094 252.160156 120.992188 252.789062 C 122.292969 253.136719 123.46875 253.546875 124.347656 254.070312 C 125.199219 254.582031 126.023438 255.363281 126.054688 256.519531 M 126.054688 256.519531 C 126.082031 257.546875 125.527344 258.363281 124.84375 258.96875 C 124.160156 259.574219 123.238281 260.082031 122.234375 260.523438 C 120.355469 261.347656 117.914062 262.0625 115.558594 262.753906 C 115.390625 262.804688 115.226562 262.855469 115.058594 262.902344 C 112.5 263.65625 110.101562 264.382812 108.4375 265.214844 C 107.601562 265.632812 107.054688 266.03125 106.757812 266.386719 C 106.503906 266.691406 106.476562 266.90625 106.546875 267.136719 C 106.546875 267.132812 106.554688 267.179688 106.636719 267.261719 C 106.71875 267.347656 106.855469 267.460938 107.066406 267.589844 C 107.496094 267.847656 108.136719 268.109375 109 268.371094 C 110.722656 268.890625 113.132812 269.332031 116.042969 269.722656 C 121.722656 270.476562 129.113281 271.003906 136.546875 271.539062 L 137.046875 271.574219 C 144.621094 272.113281 152.203125 272.664062 157.910156 273.472656 C 160.757812 273.875 163.199219 274.351562 164.960938 274.941406 C 165.835938 275.234375 166.609375 275.578125 167.191406 276 C 167.761719 276.417969 168.304688 277.027344 168.351562 277.871094 C 168.421875 279.207031 167.554688 280.179688 166.535156 280.847656 C 165.503906 281.523438 164.082031 282.0625 162.472656 282.507812 C 159.242188 283.402344 154.917969 284.03125 150.601562 284.582031 C 149.464844 284.722656 148.328125 284.863281 147.210938 285 C 144.039062 285.386719 141.007812 285.757812 138.492188 286.1875 C 136.785156 286.480469 135.371094 286.792969 134.335938 287.140625 C 133.820312 287.3125 133.433594 287.484375 133.171875 287.644531 C 132.890625 287.8125 132.835938 287.914062 132.839844 287.90625 L 132.839844 287.910156 C 132.78125 288.027344 132.785156 288.082031 132.789062 288.09375 C 132.789062 288.109375 132.796875 288.164062 132.886719 288.273438 C 133.089844 288.523438 133.582031 288.871094 134.554688 289.246094 C 136.457031 289.988281 139.65625 290.632812 144.214844 291.152344 C 153.292969 292.191406 167.414062 292.703125 186.476562 292.703125 C 203.210938 292.703125 215.90625 292.183594 224.394531 291.191406 C 228.652344 290.699219 231.789062 290.089844 233.839844 289.390625 C 234.871094 289.042969 235.554688 288.695312 235.960938 288.378906 C 236.359375 288.0625 236.359375 287.886719 236.359375 287.863281 C 236.359375 287.773438 236.3125 287.542969 235.820312 287.183594 C 235.332031 286.824219 234.578125 286.464844 233.566406 286.109375 C 231.65625 285.441406 229.128906 284.875 226.492188 284.289062 L 226.070312 284.195312 C 223.332031 283.582031 220.503906 282.933594 218.378906 282.113281 C 217.320312 281.707031 216.351562 281.222656 215.640625 280.621094 C 214.921875 280.007812 214.355469 279.167969 214.425781 278.09375 C 214.523438 276.605469 215.808594 275.6875 217.117188 275.105469 C 218.511719 274.480469 220.40625 274.019531 222.566406 273.648438 C 226.8125 272.921875 232.390625 272.503906 237.933594 272.089844 L 238.296875 272.0625 C 244 271.636719 249.636719 271.207031 253.894531 270.449219 C 256.035156 270.066406 257.75 269.617188 258.933594 269.078125 C 260.183594 268.507812 260.488281 268.003906 260.523438 267.710938 C 260.523438 267.691406 260.527344 267.648438 260.460938 267.546875 C 260.378906 267.425781 260.210938 267.253906 259.902344 267.046875 C 259.273438 266.632812 258.285156 266.21875 256.964844 265.808594 C 254.347656 264.996094 250.773438 264.300781 247.089844 263.601562 L 246.648438 263.519531 C 243.144531 262.851562 239.582031 262.175781 236.847656 261.382812 C 235.429688 260.972656 234.164062 260.511719 233.222656 259.964844 C 232.347656 259.460938 231.414062 258.6875 231.347656 257.527344 C 231.265625 256.011719 232.292969 254.933594 233.519531 254.203125 C 234.761719 253.457031 236.488281 252.886719 238.449219 252.417969 C 242.394531 251.476562 247.660156 250.878906 252.851562 250.34375 C 253.589844 250.269531 254.328125 250.195312 255.0625 250.121094 C 259.519531 249.667969 263.796875 249.238281 267.121094 248.644531 C 269.058594 248.300781 270.597656 247.914062 271.625 247.46875 C 272.140625 247.246094 272.464844 247.039062 272.640625 246.867188 C 272.726562 246.785156 272.761719 246.730469 272.777344 246.699219 C 272.792969 246.671875 272.792969 246.660156 272.792969 246.652344 C 272.792969 246.078125 272.371094 245.441406 271.160156 244.695312 C 270.007812 243.980469 268.460938 243.371094 266.816406 242.726562 L 266.734375 242.691406 C 265.128906 242.058594 263.402344 241.375 262.167969 240.542969 C 261.542969 240.121094 260.960938 239.605469 260.585938 238.960938 C 260.195312 238.28125 260.0625 237.5 260.285156 236.664062 C 260.691406 235.140625 261.898438 234.285156 263.164062 233.675781 C 263.808594 233.367188 264.527344 233.089844 265.261719 232.824219 C 265.425781 232.761719 265.589844 232.703125 265.753906 232.640625 C 266.34375 232.425781 266.945312 232.207031 267.566406 231.960938 C 270.691406 230.710938 274.082031 228.820312 276.191406 224.070312 L 276.265625 223.890625 L 276.273438 223.886719 " fill-opacity="1" fill-rule="evenodd"/></svg>