<svg xmlns="http://www.w3.org/2000/svg" xmlns:xlink="http://www.w3.org/1999/xlink" width="500" zoomAndPan="magnify" viewBox="0 0 375 374.999991" height="500" preserveAspectRatio="xMidYMid meet" version="1.0"><rect x="-37.5" width="450" fill="#ffffff" y="-37.499999" height="449.999989" fill-opacity="1"/><rect x="-37.5" width="450" fill="#000000" y="-37.499999" height="449.999989" fill-opacity="1"/><path fill="#1a1a1a" d="M 0 60 C 0 39 0 28.496094 4.085938 20.476562 C 7.683594 13.417969 13.417969 7.683594 20.476562 4.085938 C 28.496094 0 39 0 60 0 L 315 0 C 336.003906 0 346.503906 0 354.523438 4.085938 C 361.582031 7.683594 367.316406 13.417969 370.914062 20.476562 C 375 28.496094 375 39 375 60 L 375 315 C 375 336.003906 375 346.503906 370.914062 354.523438 C 367.316406 361.582031 361.582031 367.316406 354.523438 370.914062 C 346.503906 375 336.003906 375 315 375 L 60 375 C 39 375 28.496094 375 20.476562 370.914062 C 13.417969 367.316406 7.683594 361.582031 4.085938 354.523438 C 0 346.503906 0 336.003906 0 315 Z M 0 60 " fill-opacity="1" fill-rule="nonzero"/><path fill="#cdfa50" d="M 87.5 229.167969 L 129.167969 229.167969 L 129.167969 291.667969 L 87.5 291.667969 Z M 87.5 229.167969 " fill-opacity="1" fill-rule="nonzero"/><path fill="#cdfa50" d="M 254.167969 125 L 295.832031 125 L 295.832031 187.5 L 254.167969 187.5 Z M 254.167969 125 " fill-opacity="1" fill-rule="nonzero"/><path fill="#cdfa50" d="M 129.167969 187.5 L 254.167969 187.5 L 254.167969 229.167969 L 129.167969 229.167969 Z M 129.167969 187.5 " fill-opacity="1" fill-rule="nonzero"/><path fill="#cdfa50" d="M 87.5 83.332031 L 254.167969 83.332031 L 254.167969 125 L 129.167969 125 L 129.167969 187.5 L 87.5 186.980469 Z M 87.5 83.332031 " fill-opacity="1" fill-rule="nonzero"/></svg>