<svg xmlns="http://www.w3.org/2000/svg" xmlns:xlink="http://www.w3.org/1999/xlink" width="500" zoomAndPan="magnify" viewBox="0 0 375 374.999991" height="500" preserveAspectRatio="xMidYMid meet" version="1.0"><rect x="-37.5" width="450" fill="#ffffff" y="-37.499999" height="449.999989" fill-opacity="1"/><rect x="-37.5" width="450" fill="#000000" y="-37.499999" height="449.999989" fill-opacity="1"/><path fill="#ff2670" d="M 187.648438 103.824219 C 216.117188 103.824219 239.195312 90.210938 239.195312 73.414062 C 239.195312 56.621094 216.117188 43.007812 187.648438 43.007812 C 159.179688 43.007812 136.101562 56.621094 136.101562 73.414062 C 136.101562 90.210938 159.179688 103.824219 187.648438 103.824219 Z M 187.648438 103.824219 " fill-opacity="1" fill-rule="nonzero"/><path fill="#ff2670" d="M 187.648438 332.824219 C 216.117188 332.824219 239.195312 319.210938 239.195312 302.417969 C 239.195312 285.621094 216.117188 272.007812 187.648438 272.007812 C 159.179688 272.007812 136.101562 285.621094 136.101562 302.417969 C 136.101562 319.210938 159.179688 332.824219 187.648438 332.824219 Z M 187.648438 332.824219 " fill-opacity="1" fill-rule="nonzero"/><path fill="#ff2670" d="M 115.804688 145.867188 C 130.039062 120.875 129.949219 93.808594 115.605469 85.414062 C 101.261719 77.019531 78.097656 90.472656 63.863281 115.464844 C 49.628906 140.460938 49.714844 167.527344 64.058594 175.917969 C 78.402344 184.316406 101.570312 170.859375 115.804688 145.867188 Z M 115.804688 145.867188 " fill-opacity="1" fill-rule="nonzero"/><path fill="#ff2670" d="M 311.457031 260.367188 C 325.691406 235.375 325.597656 208.304688 311.25 199.910156 C 296.90625 191.511719 273.734375 204.964844 259.5 229.957031 C 245.265625 254.953125 245.359375 282.019531 259.707031 290.417969 C 274.050781 298.8125 297.222656 285.359375 311.457031 260.367188 Z M 311.457031 260.367188 " fill-opacity="1" fill-rule="nonzero"/><path fill="#ff2670" d="M 115.605469 290.425781 C 129.953125 282.027344 130.046875 254.960938 115.8125 229.964844 C 101.578125 204.972656 78.40625 191.519531 64.058594 199.917969 C 49.714844 208.3125 49.621094 235.382812 63.855469 260.375 C 78.089844 285.367188 101.261719 298.820312 115.605469 290.425781 Z M 115.605469 290.425781 " fill-opacity="1" fill-rule="nonzero"/><path fill="#ff2670" d="M 311.246094 175.914062 C 325.59375 167.515625 325.6875 140.449219 311.453125 115.457031 C 297.21875 90.464844 274.046875 77.011719 259.699219 85.40625 C 245.355469 93.804688 245.261719 120.871094 259.496094 145.863281 C 273.730469 170.859375 296.902344 184.3125 311.246094 175.914062 Z M 311.246094 175.914062 " fill-opacity="1" fill-rule="nonzero"/></svg>