<svg xmlns="http://www.w3.org/2000/svg" xmlns:xlink="http://www.w3.org/1999/xlink" width="500" zoomAndPan="magnify" viewBox="0 0 375 374.999991" height="500" preserveAspectRatio="xMidYMid meet" version="1.0"><rect x="-37.5" width="450" fill="#ffffff" y="-37.499999" height="449.999989" fill-opacity="1"/><rect x="-37.5" width="450" fill="#03bfff" y="-37.499999" height="449.999989" fill-opacity="1"/><path fill="#ffffff" d="M 211.074219 300.875 C 211.074219 304.019531 213.96875 306.371094 217.007812 305.570312 C 266.445312 292.5 302.914062 247.167969 302.914062 193.253906 C 302.914062 129.128906 251.324219 77.148438 187.6875 77.148438 C 124.050781 77.148438 72.460938 129.128906 72.460938 193.253906 C 72.460938 248.410156 110.625 294.582031 161.796875 306.421875 C 164.800781 307.113281 167.59375 304.773438 167.59375 301.691406 L 167.59375 274.183594 C 167.59375 271.960938 166.109375 270.023438 163.996094 269.339844 C 147.789062 264.078125 134.679688 254.761719 124.671875 241.386719 C 114.007812 227.039062 108.675781 210.414062 108.675781 191.511719 C 108.675781 166.535156 117.988281 146.078125 136.613281 130.136719 C 152.082031 116.925781 169.695312 110.320312 189.445312 110.320312 C 214.90625 110.320312 235.445312 119.621094 251.066406 138.21875 C 263.683594 153.25 269.992188 170.597656 269.992188 190.257812 C 269.992188 209.542969 264.398438 226.8125 253.207031 242.070312 C 243.824219 254.957031 230.976562 264.046875 214.667969 269.339844 C 212.554688 270.023438 211.074219 271.957031 211.074219 274.175781 Z M 209.613281 208.996094 C 209.613281 206.257812 207.390625 204.039062 204.65625 204.039062 L 174.125 204.039062 C 171.386719 204.039062 169.167969 206.257812 169.167969 208.996094 L 169.167969 210.875 C 169.167969 215.078125 164.40625 217.15625 162.027344 213.691406 C 157.777344 207.503906 155.652344 200.183594 155.652344 191.738281 C 155.652344 182.097656 158.992188 173.75 165.675781 166.6875 C 172.359375 159.628906 180.285156 156.097656 189.445312 156.097656 C 198.535156 156.097656 206.417969 159.628906 213.105469 166.6875 C 219.789062 173.75 223.128906 182.097656 223.128906 191.738281 C 223.128906 199.929688 221.03125 207.144531 216.828125 213.386719 C 214.457031 216.910156 209.613281 214.847656 209.613281 210.597656 Z M 209.613281 208.996094 " fill-opacity="1" fill-rule="evenodd"/></svg>